<svg width="1416" height="335" viewBox="0 0 1416 335" fill="none" xmlns="http://www.w3.org/2000/svg">
<g clip-path="url(#clip0_434_2)">
<rect width="1416" height="335" fill="url(#paint0_linear_434_2)"/>
<path d="M334.973 123.688H362.336C368.039 123.688 372.902 124.664 376.926 126.617C380.949 128.57 384.035 131.461 386.184 135.289C388.332 139.117 389.406 143.844 389.406 149.469C389.406 154.078 388.781 158.023 387.531 161.305C386.281 164.547 384.504 167.262 382.199 169.449C379.895 171.598 377.141 173.316 373.938 174.605L368.723 177.711H346.516L346.457 163.473H361.867C364.211 163.473 366.145 162.965 367.668 161.949C369.23 160.895 370.383 159.43 371.125 157.555C371.906 155.641 372.297 153.414 372.297 150.875C372.297 148.18 371.945 145.875 371.242 143.961C370.578 142.008 369.504 140.523 368.02 139.508C366.574 138.453 364.68 137.926 362.336 137.926H352.141V209H334.973V123.688ZM373.703 209L358.059 170.973L376.047 170.914L392.043 208.18V209H373.703ZM398.664 179.469V175.191C398.664 170.23 399.25 165.836 400.422 162.008C401.633 158.18 403.352 154.977 405.578 152.398C407.805 149.781 410.48 147.809 413.605 146.48C416.77 145.113 420.305 144.43 424.211 144.43C428.156 144.43 431.691 145.113 434.816 146.48C437.98 147.809 440.676 149.781 442.902 152.398C445.168 154.977 446.906 158.18 448.117 162.008C449.328 165.836 449.934 170.23 449.934 175.191V179.469C449.934 184.391 449.328 188.766 448.117 192.594C446.906 196.422 445.168 199.645 442.902 202.262C440.676 204.879 438 206.852 434.875 208.18C431.75 209.508 428.234 210.172 424.328 210.172C420.422 210.172 416.887 209.508 413.723 208.18C410.598 206.852 407.902 204.879 405.637 202.262C403.371 199.645 401.633 196.422 400.422 192.594C399.25 188.766 398.664 184.391 398.664 179.469ZM415.07 175.191V179.469C415.07 182.398 415.266 184.938 415.656 187.086C416.086 189.234 416.691 191.012 417.473 192.418C418.293 193.824 419.27 194.859 420.402 195.523C421.535 196.188 422.844 196.52 424.328 196.52C425.812 196.52 427.141 196.188 428.312 195.523C429.484 194.859 430.441 193.824 431.184 192.418C431.965 191.012 432.531 189.234 432.883 187.086C433.273 184.938 433.469 182.398 433.469 179.469V175.191C433.469 172.34 433.254 169.84 432.824 167.691C432.395 165.504 431.789 163.727 431.008 162.359C430.227 160.953 429.25 159.898 428.078 159.195C426.945 158.453 425.656 158.082 424.211 158.082C422.766 158.082 421.477 158.453 420.344 159.195C419.25 159.898 418.293 160.953 417.473 162.359C416.691 163.727 416.086 165.504 415.656 167.691C415.266 169.84 415.07 172.34 415.07 175.191ZM460.363 119H476.711V194.293L475.539 209H460.363V119ZM509.641 175.191V179.352C509.641 184.508 509.23 189 508.41 192.828C507.629 196.656 506.398 199.859 504.719 202.438C503.078 205.016 500.969 206.949 498.391 208.238C495.812 209.527 492.766 210.172 489.25 210.172C486.086 210.172 483.371 209.43 481.105 207.945C478.84 206.422 476.926 204.332 475.363 201.676C473.84 198.98 472.59 195.836 471.613 192.242C470.676 188.609 469.992 184.645 469.562 180.348V174.195C469.953 169.977 470.617 166.051 471.555 162.418C472.531 158.785 473.781 155.641 475.305 152.984C476.828 150.289 478.723 148.199 480.988 146.715C483.293 145.191 486.008 144.43 489.133 144.43C492.727 144.43 495.812 145.094 498.391 146.422C500.969 147.711 503.078 149.645 504.719 152.223C506.398 154.801 507.629 158.023 508.41 161.891C509.23 165.719 509.641 170.152 509.641 175.191ZM493.293 179.352V175.191C493.293 172.262 493.176 169.742 492.941 167.633C492.707 165.523 492.277 163.766 491.652 162.359C491.027 160.953 490.129 159.898 488.957 159.195C487.824 158.492 486.32 158.141 484.445 158.141C482.766 158.141 481.359 158.473 480.227 159.137C479.094 159.762 478.117 160.699 477.297 161.949C476.516 163.16 475.93 164.605 475.539 166.285C475.188 167.926 474.992 169.742 474.953 171.734V182.809C474.992 185.504 475.324 187.887 475.949 189.957C476.574 192.027 477.57 193.629 478.938 194.762C480.344 195.895 482.219 196.461 484.562 196.461C486.398 196.461 487.883 196.148 489.016 195.523C490.148 194.898 491.027 193.902 491.652 192.535C492.316 191.168 492.746 189.41 492.941 187.262C493.176 185.074 493.293 182.438 493.293 179.352ZM536.945 119V209H520.48V119H536.945ZM548.078 179.469V175.191C548.078 170.23 548.664 165.836 549.836 162.008C551.047 158.18 552.766 154.977 554.992 152.398C557.219 149.781 559.895 147.809 563.02 146.48C566.184 145.113 569.719 144.43 573.625 144.43C577.57 144.43 581.105 145.113 584.23 146.48C587.395 147.809 590.09 149.781 592.316 152.398C594.582 154.977 596.32 158.18 597.531 162.008C598.742 165.836 599.348 170.23 599.348 175.191V179.469C599.348 184.391 598.742 188.766 597.531 192.594C596.32 196.422 594.582 199.645 592.316 202.262C590.09 204.879 587.414 206.852 584.289 208.18C581.164 209.508 577.648 210.172 573.742 210.172C569.836 210.172 566.301 209.508 563.137 208.18C560.012 206.852 557.316 204.879 555.051 202.262C552.785 199.645 551.047 196.422 549.836 192.594C548.664 188.766 548.078 184.391 548.078 179.469ZM564.484 175.191V179.469C564.484 182.398 564.68 184.938 565.07 187.086C565.5 189.234 566.105 191.012 566.887 192.418C567.707 193.824 568.684 194.859 569.816 195.523C570.949 196.188 572.258 196.52 573.742 196.52C575.227 196.52 576.555 196.188 577.727 195.523C578.898 194.859 579.855 193.824 580.598 192.418C581.379 191.012 581.945 189.234 582.297 187.086C582.688 184.938 582.883 182.398 582.883 179.469V175.191C582.883 172.34 582.668 169.84 582.238 167.691C581.809 165.504 581.203 163.727 580.422 162.359C579.641 160.953 578.664 159.898 577.492 159.195C576.359 158.453 575.07 158.082 573.625 158.082C572.18 158.082 570.891 158.453 569.758 159.195C568.664 159.898 567.707 160.953 566.887 162.359C566.105 163.727 565.5 165.504 565.07 167.691C564.68 169.84 564.484 172.34 564.484 175.191ZM622.434 145.602L630.285 161.715L637.023 145.602H654.426L638.195 176.598L655.07 209H637.551L629.523 192.301L621.848 209H604.27L620.383 176.773L604.855 145.602H622.434Z" fill="white"/>
<g filter="url(#filter0_ddddd_434_2)">
<rect x="685" y="112" width="402" height="112" rx="56" fill="#202024"/>
<g clip-path="url(#clip1_434_2)">
<path d="M812.625 172.875V180.156H784.844L784.438 174.438L799.906 144.5H806.844L799.75 157.812L793 172.875H812.625ZM808.75 144.5V190H799.969V144.5H808.75ZM850.344 144.5V190H841.5L827.219 161.531V190H818.531V144.5H827.25L841.656 173.281V144.5H850.344ZM856.281 174.25V171.969C856.281 169.323 856.594 166.979 857.219 164.938C857.865 162.896 858.781 161.188 859.969 159.812C861.156 158.417 862.583 157.365 864.25 156.656C865.938 155.927 867.823 155.562 869.906 155.562C872.01 155.562 873.896 155.927 875.562 156.656C877.25 157.365 878.688 158.417 879.875 159.812C881.083 161.188 882.01 162.896 882.656 164.938C883.302 166.979 883.625 169.323 883.625 171.969V174.25C883.625 176.875 883.302 179.208 882.656 181.25C882.01 183.292 881.083 185.01 879.875 186.406C878.688 187.802 877.26 188.854 875.594 189.562C873.927 190.271 872.052 190.625 869.969 190.625C867.885 190.625 866 190.271 864.312 189.562C862.646 188.854 861.208 187.802 860 186.406C858.792 185.01 857.865 183.292 857.219 181.25C856.594 179.208 856.281 176.875 856.281 174.25ZM865.031 171.969V174.25C865.031 175.812 865.135 177.167 865.344 178.312C865.573 179.458 865.896 180.406 866.312 181.156C866.75 181.906 867.271 182.458 867.875 182.812C868.479 183.167 869.177 183.344 869.969 183.344C870.76 183.344 871.469 183.167 872.094 182.812C872.719 182.458 873.229 181.906 873.625 181.156C874.042 180.406 874.344 179.458 874.531 178.312C874.74 177.167 874.844 175.812 874.844 174.25V171.969C874.844 170.448 874.729 169.115 874.5 167.969C874.271 166.802 873.948 165.854 873.531 165.125C873.115 164.375 872.594 163.812 871.969 163.438C871.365 163.042 870.677 162.844 869.906 162.844C869.135 162.844 868.448 163.042 867.844 163.438C867.26 163.812 866.75 164.375 866.312 165.125C865.896 165.854 865.573 166.802 865.344 167.969C865.135 169.115 865.031 170.448 865.031 171.969ZM888.156 174.25V171.969C888.156 169.323 888.469 166.979 889.094 164.938C889.74 162.896 890.656 161.188 891.844 159.812C893.031 158.417 894.458 157.365 896.125 156.656C897.812 155.927 899.698 155.562 901.781 155.562C903.885 155.562 905.771 155.927 907.438 156.656C909.125 157.365 910.562 158.417 911.75 159.812C912.958 161.188 913.885 162.896 914.531 164.938C915.177 166.979 915.5 169.323 915.5 171.969V174.25C915.5 176.875 915.177 179.208 914.531 181.25C913.885 183.292 912.958 185.01 911.75 186.406C910.562 187.802 909.135 188.854 907.469 189.562C905.802 190.271 903.927 190.625 901.844 190.625C899.76 190.625 897.875 190.271 896.188 189.562C894.521 188.854 893.083 187.802 891.875 186.406C890.667 185.01 889.74 183.292 889.094 181.25C888.469 179.208 888.156 176.875 888.156 174.25ZM896.906 171.969V174.25C896.906 175.812 897.01 177.167 897.219 178.312C897.448 179.458 897.771 180.406 898.188 181.156C898.625 181.906 899.146 182.458 899.75 182.812C900.354 183.167 901.052 183.344 901.844 183.344C902.635 183.344 903.344 183.167 903.969 182.812C904.594 182.458 905.104 181.906 905.5 181.156C905.917 180.406 906.219 179.458 906.406 178.312C906.615 177.167 906.719 175.812 906.719 174.25V171.969C906.719 170.448 906.604 169.115 906.375 167.969C906.146 166.802 905.823 165.854 905.406 165.125C904.99 164.375 904.469 163.812 903.844 163.438C903.24 163.042 902.552 162.844 901.781 162.844C901.01 162.844 900.323 163.042 899.719 163.438C899.135 163.812 898.625 164.375 898.188 165.125C897.771 165.854 897.448 166.802 897.219 167.969C897.01 169.115 896.906 170.448 896.906 171.969ZM921.062 142H929.781V182.156L929.156 190H921.062V142ZM947.344 171.969V174.188C947.344 176.938 947.125 179.333 946.688 181.375C946.271 183.417 945.615 185.125 944.719 186.5C943.844 187.875 942.719 188.906 941.344 189.594C939.969 190.281 938.344 190.625 936.469 190.625C934.781 190.625 933.333 190.229 932.125 189.438C930.917 188.625 929.896 187.51 929.062 186.094C928.25 184.656 927.583 182.979 927.062 181.062C926.562 179.125 926.198 177.01 925.969 174.719V171.438C926.177 169.188 926.531 167.094 927.031 165.156C927.552 163.219 928.219 161.542 929.031 160.125C929.844 158.688 930.854 157.573 932.062 156.781C933.292 155.969 934.74 155.562 936.406 155.562C938.323 155.562 939.969 155.917 941.344 156.625C942.719 157.312 943.844 158.344 944.719 159.719C945.615 161.094 946.271 162.812 946.688 164.875C947.125 166.917 947.344 169.281 947.344 171.969ZM938.625 174.188V171.969C938.625 170.406 938.562 169.062 938.438 167.938C938.312 166.812 938.083 165.875 937.75 165.125C937.417 164.375 936.938 163.812 936.312 163.438C935.708 163.062 934.906 162.875 933.906 162.875C933.01 162.875 932.26 163.052 931.656 163.406C931.052 163.74 930.531 164.24 930.094 164.906C929.677 165.552 929.365 166.323 929.156 167.219C928.969 168.094 928.865 169.062 928.844 170.125V176.031C928.865 177.469 929.042 178.74 929.375 179.844C929.708 180.948 930.24 181.802 930.969 182.406C931.719 183.01 932.719 183.312 933.969 183.312C934.948 183.312 935.74 183.146 936.344 182.812C936.948 182.479 937.417 181.948 937.75 181.219C938.104 180.49 938.333 179.552 938.438 178.406C938.562 177.24 938.625 175.833 938.625 174.188ZM967.719 180.875C967.719 180.292 967.521 179.771 967.125 179.312C966.729 178.854 966.104 178.385 965.25 177.906C964.396 177.406 963.26 176.854 961.844 176.25C960.302 175.625 958.938 174.979 957.75 174.312C956.562 173.646 955.552 172.906 954.719 172.094C953.906 171.281 953.292 170.354 952.875 169.312C952.458 168.271 952.25 167.083 952.25 165.75C952.25 164.312 952.51 162.99 953.031 161.781C953.573 160.552 954.344 159.479 955.344 158.562C956.344 157.625 957.562 156.896 959 156.375C960.458 155.833 962.094 155.562 963.906 155.562C966.448 155.562 968.625 156.01 970.438 156.906C972.271 157.781 973.677 159.01 974.656 160.594C975.635 162.177 976.125 164.021 976.125 166.125H967.375C967.375 165.375 967.26 164.708 967.031 164.125C966.802 163.521 966.427 163.052 965.906 162.719C965.406 162.385 964.729 162.219 963.875 162.219C963.25 162.219 962.688 162.354 962.188 162.625C961.708 162.896 961.323 163.26 961.031 163.719C960.76 164.156 960.625 164.677 960.625 165.281C960.625 165.74 960.719 166.146 960.906 166.5C961.115 166.854 961.438 167.198 961.875 167.531C962.312 167.865 962.896 168.219 963.625 168.594C964.375 168.948 965.292 169.344 966.375 169.781C968.625 170.615 970.469 171.51 971.906 172.469C973.365 173.427 974.448 174.552 975.156 175.844C975.865 177.115 976.219 178.688 976.219 180.562C976.219 182.062 975.927 183.427 975.344 184.656C974.781 185.885 973.958 186.948 972.875 187.844C971.792 188.74 970.49 189.427 968.969 189.906C967.469 190.385 965.792 190.625 963.938 190.625C961.208 190.625 958.906 190.083 957.031 189C955.156 187.917 953.74 186.531 952.781 184.844C951.823 183.135 951.344 181.365 951.344 179.531H959.656C959.698 180.656 959.906 181.542 960.281 182.188C960.677 182.812 961.208 183.25 961.875 183.5C962.542 183.75 963.281 183.875 964.094 183.875C964.906 183.875 965.573 183.771 966.094 183.562C966.635 183.333 967.042 182.99 967.312 182.531C967.583 182.052 967.719 181.5 967.719 180.875Z" fill="#9FCCFA"/>
<path d="M746.382 191.934C745.183 191.224 744.215 190.326 743.472 189.248C742.679 188.122 742.106 186.883 741.749 185.535C741.393 184.186 741.218 182.864 741.218 181.573V177.573C741.218 175.399 740.706 173.837 739.682 172.89C738.657 171.944 737.098 171.467 735 171.467V166.563C737.098 166.563 738.657 166.09 739.682 165.14C740.706 164.193 741.218 162.612 741.218 160.404V156.405C741.218 155.015 741.415 153.581 741.814 152.101C742.212 150.622 742.838 149.334 743.696 148.237C744.405 147.291 745.338 146.513 746.496 145.909C747.653 145.304 749.03 145 750.635 145L751.477 148.849C750.468 148.815 749.694 149.026 749.147 149.476C748.601 149.927 748.207 150.52 747.956 151.253C747.71 151.989 747.565 152.811 747.524 153.716C747.482 154.625 747.463 155.519 747.463 156.401V160.4C747.463 162.346 746.981 164.073 746.014 165.575C745.046 167.081 743.548 168.223 741.518 169.008C743.567 169.792 745.069 170.93 746.029 172.417C746.985 173.904 747.467 175.621 747.467 177.57V181.569C747.467 182.451 747.52 183.349 747.626 184.254C747.732 185.163 747.937 185.981 748.233 186.717C748.529 187.453 748.939 188.047 749.459 188.497C749.978 188.948 750.65 189.155 751.477 189.125L750.635 193C748.999 193 747.584 192.643 746.385 191.934H746.382Z" fill="#0F67B1"/>
<path d="M1011.94 188.487C1012.44 188.036 1012.84 187.443 1013.13 186.707C1013.42 185.971 1013.62 185.148 1013.73 184.243C1013.84 183.335 1013.9 182.441 1013.9 181.559V177.559C1013.9 176.613 1014 175.712 1014.22 174.863C1014.44 174.015 1014.77 173.219 1015.22 172.487C1015.67 171.751 1016.23 171.093 1016.92 170.511C1017.6 169.933 1018.41 169.437 1019.36 169.028C1018.59 168.701 1017.91 168.307 1017.31 167.853C1016.72 167.395 1016.21 166.888 1015.77 166.332C1015.13 165.513 1014.66 164.605 1014.35 163.598C1014.05 162.592 1013.9 161.526 1013.9 160.399V156.4C1013.9 155.518 1013.88 154.624 1013.84 153.715C1013.8 152.807 1013.66 151.988 1013.42 151.252C1013.18 150.516 1012.79 149.923 1012.26 149.476C1011.73 149.029 1010.98 148.819 1010 148.849L1010.82 145C1012.53 145 1013.98 145.357 1015.15 146.066C1016.32 146.776 1017.28 147.73 1018.01 148.924C1018.72 150.002 1019.22 151.207 1019.52 152.54C1019.81 153.873 1019.96 155.161 1019.96 156.404V160.403C1019.96 161.319 1020.05 162.126 1020.22 162.832C1020.39 163.535 1020.65 164.132 1021 164.624C1021.46 165.296 1022.12 165.784 1022.96 166.096C1023.8 166.407 1024.81 166.561 1026 166.561V171.465C1024.67 171.465 1023.56 171.657 1022.68 172.04C1021.8 172.423 1021.13 173.042 1020.68 173.891C1020.44 174.349 1020.26 174.886 1020.14 175.498C1020.02 176.11 1019.96 176.801 1019.96 177.571V181.57C1019.96 182.847 1019.78 184.168 1019.41 185.543C1019.04 186.917 1018.5 188.141 1017.77 189.222C1017.05 190.349 1016.11 191.261 1014.95 191.956C1013.78 192.651 1012.41 193 1010.82 193L1010 189.125C1010.79 189.159 1011.44 188.948 1011.94 188.498L1011.94 188.487Z" fill="#0F67B1"/>
</g>
</g>
<path opacity="0.5" d="M599.508 289H597.031L597.047 287.172H599.508C600.122 287.172 600.641 287.034 601.062 286.758C601.484 286.477 601.802 286.068 602.016 285.531C602.234 284.995 602.344 284.346 602.344 283.586V283.031C602.344 282.448 602.281 281.935 602.156 281.492C602.036 281.049 601.857 280.677 601.617 280.375C601.378 280.073 601.083 279.846 600.734 279.695C600.385 279.539 599.984 279.461 599.531 279.461H596.984V277.625H599.531C600.292 277.625 600.987 277.755 601.617 278.016C602.253 278.271 602.802 278.638 603.266 279.117C603.729 279.596 604.086 280.169 604.336 280.836C604.591 281.497 604.719 282.234 604.719 283.047V283.586C604.719 284.393 604.591 285.13 604.336 285.797C604.086 286.464 603.729 287.036 603.266 287.516C602.807 287.99 602.258 288.357 601.617 288.617C600.982 288.872 600.279 289 599.508 289ZM598.359 277.625V289H596.016V277.625H598.359ZM605.922 284.859V284.695C605.922 284.076 606.01 283.505 606.188 282.984C606.365 282.458 606.622 282.003 606.961 281.617C607.299 281.232 607.716 280.932 608.211 280.719C608.706 280.5 609.273 280.391 609.914 280.391C610.555 280.391 611.125 280.5 611.625 280.719C612.125 280.932 612.544 281.232 612.883 281.617C613.227 282.003 613.487 282.458 613.664 282.984C613.841 283.505 613.93 284.076 613.93 284.695V284.859C613.93 285.474 613.841 286.044 613.664 286.57C613.487 287.091 613.227 287.547 612.883 287.938C612.544 288.323 612.128 288.622 611.633 288.836C611.138 289.049 610.57 289.156 609.93 289.156C609.289 289.156 608.719 289.049 608.219 288.836C607.724 288.622 607.305 288.323 606.961 287.938C606.622 287.547 606.365 287.091 606.188 286.57C606.01 286.044 605.922 285.474 605.922 284.859ZM608.172 284.695V284.859C608.172 285.214 608.203 285.544 608.266 285.852C608.328 286.159 608.427 286.43 608.562 286.664C608.703 286.893 608.885 287.073 609.109 287.203C609.333 287.333 609.607 287.398 609.93 287.398C610.242 287.398 610.51 287.333 610.734 287.203C610.958 287.073 611.138 286.893 611.273 286.664C611.409 286.43 611.508 286.159 611.57 285.852C611.638 285.544 611.672 285.214 611.672 284.859V284.695C611.672 284.352 611.638 284.029 611.57 283.727C611.508 283.419 611.406 283.148 611.266 282.914C611.13 282.674 610.951 282.487 610.727 282.352C610.503 282.216 610.232 282.148 609.914 282.148C609.596 282.148 609.326 282.216 609.102 282.352C608.883 282.487 608.703 282.674 608.562 282.914C608.427 283.148 608.328 283.419 608.266 283.727C608.203 284.029 608.172 284.352 608.172 284.695ZM617.516 282.352V289H615.266V280.547H617.375L617.516 282.352ZM617.188 284.477H616.578C616.578 283.852 616.659 283.289 616.82 282.789C616.982 282.284 617.208 281.854 617.5 281.5C617.792 281.141 618.138 280.867 618.539 280.68C618.945 280.487 619.398 280.391 619.898 280.391C620.294 280.391 620.656 280.448 620.984 280.562C621.312 280.677 621.594 280.859 621.828 281.109C622.068 281.359 622.25 281.69 622.375 282.102C622.505 282.513 622.57 283.016 622.57 283.609V289H620.305V283.602C620.305 283.227 620.253 282.935 620.148 282.727C620.044 282.518 619.891 282.372 619.688 282.289C619.49 282.201 619.245 282.156 618.953 282.156C618.651 282.156 618.388 282.216 618.164 282.336C617.945 282.456 617.763 282.622 617.617 282.836C617.477 283.044 617.37 283.289 617.297 283.57C617.224 283.852 617.188 284.154 617.188 284.477ZM628.172 289.156C627.516 289.156 626.927 289.052 626.406 288.844C625.885 288.63 625.443 288.336 625.078 287.961C624.719 287.586 624.443 287.151 624.25 286.656C624.057 286.156 623.961 285.625 623.961 285.062V284.75C623.961 284.109 624.052 283.523 624.234 282.992C624.417 282.461 624.677 282 625.016 281.609C625.359 281.219 625.776 280.919 626.266 280.711C626.755 280.497 627.307 280.391 627.922 280.391C628.521 280.391 629.052 280.49 629.516 280.688C629.979 280.885 630.367 281.167 630.68 281.531C630.997 281.896 631.237 282.333 631.398 282.844C631.56 283.349 631.641 283.911 631.641 284.531V285.469H624.922V283.969H629.43V283.797C629.43 283.484 629.372 283.206 629.258 282.961C629.148 282.711 628.982 282.513 628.758 282.367C628.534 282.221 628.247 282.148 627.898 282.148C627.602 282.148 627.346 282.214 627.133 282.344C626.919 282.474 626.745 282.656 626.609 282.891C626.479 283.125 626.38 283.401 626.312 283.719C626.25 284.031 626.219 284.375 626.219 284.75V285.062C626.219 285.401 626.266 285.714 626.359 286C626.458 286.286 626.596 286.534 626.773 286.742C626.956 286.951 627.174 287.112 627.43 287.227C627.69 287.341 627.984 287.398 628.312 287.398C628.719 287.398 629.096 287.32 629.445 287.164C629.799 287.003 630.104 286.76 630.359 286.438L631.453 287.625C631.276 287.88 631.034 288.125 630.727 288.359C630.424 288.594 630.06 288.786 629.633 288.938C629.206 289.083 628.719 289.156 628.172 289.156ZM639.32 286.812L641.078 280.547H642.508L642.047 283.008L640.289 289H639.094L639.32 286.812ZM638.43 280.547L639.688 286.805L639.805 289H638.398L636.258 280.547H638.43ZM644.117 286.703L645.344 280.547H647.523L645.383 289H643.984L644.117 286.703ZM642.703 280.547L644.453 286.766L644.695 289H643.492L641.734 283.016L641.289 280.547H642.703ZM651.031 280.547V289H648.773V280.547H651.031ZM648.633 278.344C648.633 278.016 648.747 277.745 648.977 277.531C649.206 277.318 649.513 277.211 649.898 277.211C650.279 277.211 650.583 277.318 650.812 277.531C651.047 277.745 651.164 278.016 651.164 278.344C651.164 278.672 651.047 278.943 650.812 279.156C650.583 279.37 650.279 279.477 649.898 279.477C649.513 279.477 649.206 279.37 648.977 279.156C648.747 278.943 648.633 278.672 648.633 278.344ZM657.031 280.547V282.141H652.109V280.547H657.031ZM653.328 278.461H655.578V286.453C655.578 286.698 655.609 286.885 655.672 287.016C655.74 287.146 655.839 287.237 655.969 287.289C656.099 287.336 656.263 287.359 656.461 287.359C656.602 287.359 656.727 287.354 656.836 287.344C656.951 287.328 657.047 287.312 657.125 287.297L657.133 288.953C656.94 289.016 656.732 289.065 656.508 289.102C656.284 289.138 656.036 289.156 655.766 289.156C655.271 289.156 654.839 289.076 654.469 288.914C654.104 288.747 653.823 288.482 653.625 288.117C653.427 287.753 653.328 287.273 653.328 286.68V278.461ZM660.508 277V289H658.258V277H660.508ZM660.188 284.477H659.57C659.576 283.888 659.654 283.346 659.805 282.852C659.956 282.352 660.172 281.919 660.453 281.555C660.734 281.185 661.07 280.898 661.461 280.695C661.857 280.492 662.294 280.391 662.773 280.391C663.19 280.391 663.568 280.451 663.906 280.57C664.25 280.685 664.544 280.872 664.789 281.133C665.039 281.388 665.232 281.724 665.367 282.141C665.503 282.557 665.57 283.062 665.57 283.656V289H663.305V283.641C663.305 283.266 663.25 282.971 663.141 282.758C663.036 282.539 662.883 282.385 662.68 282.297C662.482 282.203 662.237 282.156 661.945 282.156C661.622 282.156 661.346 282.216 661.117 282.336C660.893 282.456 660.714 282.622 660.578 282.836C660.443 283.044 660.344 283.289 660.281 283.57C660.219 283.852 660.188 284.154 660.188 284.477ZM670.391 290.12H686.391V274.12H670.391V290.12ZM691.25 277H693.5V287.062L693.273 289H691.25V277ZM698.852 284.688V284.852C698.852 285.482 698.784 286.06 698.648 286.586C698.518 287.112 698.315 287.568 698.039 287.953C697.763 288.333 697.419 288.63 697.008 288.844C696.602 289.052 696.122 289.156 695.57 289.156C695.055 289.156 694.607 289.052 694.227 288.844C693.852 288.635 693.536 288.341 693.281 287.961C693.026 287.581 692.82 287.135 692.664 286.625C692.508 286.115 692.391 285.557 692.312 284.953V284.594C692.391 283.99 692.508 283.432 692.664 282.922C692.82 282.411 693.026 281.966 693.281 281.586C693.536 281.206 693.852 280.911 694.227 280.703C694.602 280.495 695.044 280.391 695.555 280.391C696.112 280.391 696.596 280.497 697.008 280.711C697.424 280.919 697.768 281.216 698.039 281.602C698.315 281.982 698.518 282.435 698.648 282.961C698.784 283.482 698.852 284.057 698.852 284.688ZM696.602 284.852V284.688C696.602 284.344 696.576 284.021 696.523 283.719C696.477 283.411 696.393 283.143 696.273 282.914C696.154 282.68 695.99 282.495 695.781 282.359C695.578 282.224 695.315 282.156 694.992 282.156C694.685 282.156 694.424 282.208 694.211 282.312C693.997 282.417 693.82 282.562 693.68 282.75C693.544 282.938 693.443 283.161 693.375 283.422C693.307 283.677 693.266 283.958 693.25 284.266V285.289C693.266 285.701 693.333 286.065 693.453 286.383C693.578 286.695 693.766 286.943 694.016 287.125C694.271 287.302 694.602 287.391 695.008 287.391C695.326 287.391 695.589 287.328 695.797 287.203C696.005 287.078 696.167 286.901 696.281 286.672C696.401 286.443 696.484 286.174 696.531 285.867C696.578 285.555 696.602 285.216 696.602 284.852ZM702.664 288.047L704.906 280.547H707.32L703.922 290.273C703.849 290.487 703.75 290.716 703.625 290.961C703.505 291.206 703.341 291.438 703.133 291.656C702.93 291.88 702.672 292.062 702.359 292.203C702.052 292.344 701.674 292.414 701.227 292.414C701.013 292.414 700.839 292.401 700.703 292.375C700.568 292.349 700.406 292.312 700.219 292.266V290.617C700.276 290.617 700.336 290.617 700.398 290.617C700.461 290.622 700.521 290.625 700.578 290.625C700.875 290.625 701.117 290.591 701.305 290.523C701.492 290.456 701.643 290.352 701.758 290.211C701.872 290.076 701.964 289.898 702.031 289.68L702.664 288.047ZM701.727 280.547L703.562 286.672L703.883 289.055L702.352 289.219L699.312 280.547H701.727ZM717.195 287.156V277H719.461V289H717.422L717.195 287.156ZM711.852 284.875V284.711C711.852 284.065 711.924 283.479 712.07 282.953C712.216 282.422 712.43 281.966 712.711 281.586C712.992 281.206 713.339 280.911 713.75 280.703C714.161 280.495 714.63 280.391 715.156 280.391C715.651 280.391 716.083 280.495 716.453 280.703C716.828 280.911 717.146 281.208 717.406 281.594C717.672 281.974 717.885 282.424 718.047 282.945C718.208 283.461 718.326 284.026 718.398 284.641V285C718.326 285.589 718.208 286.135 718.047 286.641C717.885 287.146 717.672 287.589 717.406 287.969C717.146 288.344 716.828 288.635 716.453 288.844C716.078 289.052 715.641 289.156 715.141 289.156C714.615 289.156 714.146 289.049 713.734 288.836C713.328 288.622 712.984 288.323 712.703 287.938C712.427 287.552 712.216 287.099 712.07 286.578C711.924 286.057 711.852 285.49 711.852 284.875ZM714.102 284.711V284.875C714.102 285.224 714.128 285.549 714.18 285.852C714.237 286.154 714.328 286.422 714.453 286.656C714.583 286.885 714.75 287.065 714.953 287.195C715.161 287.32 715.414 287.383 715.711 287.383C716.096 287.383 716.414 287.297 716.664 287.125C716.914 286.948 717.104 286.706 717.234 286.398C717.37 286.091 717.448 285.737 717.469 285.336V284.312C717.453 283.984 717.406 283.69 717.328 283.43C717.255 283.164 717.146 282.938 717 282.75C716.859 282.562 716.682 282.417 716.469 282.312C716.26 282.208 716.013 282.156 715.727 282.156C715.435 282.156 715.185 282.224 714.977 282.359C714.768 282.49 714.599 282.669 714.469 282.898C714.344 283.128 714.25 283.398 714.188 283.711C714.13 284.018 714.102 284.352 714.102 284.711ZM725.109 289.156C724.453 289.156 723.865 289.052 723.344 288.844C722.823 288.63 722.38 288.336 722.016 287.961C721.656 287.586 721.38 287.151 721.188 286.656C720.995 286.156 720.898 285.625 720.898 285.062V284.75C720.898 284.109 720.99 283.523 721.172 282.992C721.354 282.461 721.615 282 721.953 281.609C722.297 281.219 722.714 280.919 723.203 280.711C723.693 280.497 724.245 280.391 724.859 280.391C725.458 280.391 725.99 280.49 726.453 280.688C726.917 280.885 727.305 281.167 727.617 281.531C727.935 281.896 728.174 282.333 728.336 282.844C728.497 283.349 728.578 283.911 728.578 284.531V285.469H721.859V283.969H726.367V283.797C726.367 283.484 726.31 283.206 726.195 282.961C726.086 282.711 725.919 282.513 725.695 282.367C725.471 282.221 725.185 282.148 724.836 282.148C724.539 282.148 724.284 282.214 724.07 282.344C723.857 282.474 723.682 282.656 723.547 282.891C723.417 283.125 723.318 283.401 723.25 283.719C723.188 284.031 723.156 284.375 723.156 284.75V285.062C723.156 285.401 723.203 285.714 723.297 286C723.396 286.286 723.534 286.534 723.711 286.742C723.893 286.951 724.112 287.112 724.367 287.227C724.628 287.341 724.922 287.398 725.25 287.398C725.656 287.398 726.034 287.32 726.383 287.164C726.737 287.003 727.042 286.76 727.297 286.438L728.391 287.625C728.214 287.88 727.971 288.125 727.664 288.359C727.362 288.594 726.997 288.786 726.57 288.938C726.143 289.083 725.656 289.156 725.109 289.156ZM732.625 287.359L734.5 280.547H736.852L734 289H732.578L732.625 287.359ZM731.336 280.547L733.219 287.367L733.258 289H731.828L728.977 280.547H731.336ZM742.297 283.234V285H737.883V283.234H742.297ZM744.297 280.547H746.555V289.508C746.555 290.133 746.44 290.661 746.211 291.094C745.982 291.526 745.651 291.854 745.219 292.078C744.786 292.302 744.263 292.414 743.648 292.414C743.456 292.414 743.268 292.404 743.086 292.383C742.898 292.362 742.706 292.328 742.508 292.281L742.516 290.555C742.641 290.576 742.763 290.591 742.883 290.602C742.997 290.617 743.115 290.625 743.234 290.625C743.469 290.625 743.664 290.586 743.82 290.508C743.977 290.43 744.094 290.307 744.172 290.141C744.255 289.979 744.297 289.768 744.297 289.508V280.547ZM744.117 278.344C744.117 278.016 744.232 277.745 744.461 277.531C744.695 277.318 745.003 277.211 745.383 277.211C745.768 277.211 746.076 277.318 746.305 277.531C746.534 277.745 746.648 278.016 746.648 278.344C746.648 278.672 746.534 278.943 746.305 279.156C746.076 279.37 745.768 279.477 745.383 279.477C745.003 279.477 744.695 279.37 744.461 279.156C744.232 278.943 744.117 278.672 744.117 278.344ZM750.539 277V289H748.289V277H750.539ZM750.219 284.477H749.602C749.607 283.888 749.685 283.346 749.836 282.852C749.987 282.352 750.203 281.919 750.484 281.555C750.766 281.185 751.102 280.898 751.492 280.695C751.888 280.492 752.326 280.391 752.805 280.391C753.221 280.391 753.599 280.451 753.938 280.57C754.281 280.685 754.576 280.872 754.82 281.133C755.07 281.388 755.263 281.724 755.398 282.141C755.534 282.557 755.602 283.062 755.602 283.656V289H753.336V283.641C753.336 283.266 753.281 282.971 753.172 282.758C753.068 282.539 752.914 282.385 752.711 282.297C752.513 282.203 752.268 282.156 751.977 282.156C751.654 282.156 751.378 282.216 751.148 282.336C750.924 282.456 750.745 282.622 750.609 282.836C750.474 283.044 750.375 283.289 750.312 283.57C750.25 283.852 750.219 284.154 750.219 284.477ZM756.953 284.859V284.695C756.953 284.076 757.042 283.505 757.219 282.984C757.396 282.458 757.654 282.003 757.992 281.617C758.331 281.232 758.747 280.932 759.242 280.719C759.737 280.5 760.305 280.391 760.945 280.391C761.586 280.391 762.156 280.5 762.656 280.719C763.156 280.932 763.576 281.232 763.914 281.617C764.258 282.003 764.518 282.458 764.695 282.984C764.872 283.505 764.961 284.076 764.961 284.695V284.859C764.961 285.474 764.872 286.044 764.695 286.57C764.518 287.091 764.258 287.547 763.914 287.938C763.576 288.323 763.159 288.622 762.664 288.836C762.169 289.049 761.602 289.156 760.961 289.156C760.32 289.156 759.75 289.049 759.25 288.836C758.755 288.622 758.336 288.323 757.992 287.938C757.654 287.547 757.396 287.091 757.219 286.57C757.042 286.044 756.953 285.474 756.953 284.859ZM759.203 284.695V284.859C759.203 285.214 759.234 285.544 759.297 285.852C759.359 286.159 759.458 286.43 759.594 286.664C759.734 286.893 759.917 287.073 760.141 287.203C760.365 287.333 760.638 287.398 760.961 287.398C761.273 287.398 761.542 287.333 761.766 287.203C761.99 287.073 762.169 286.893 762.305 286.664C762.44 286.43 762.539 286.159 762.602 285.852C762.669 285.544 762.703 285.214 762.703 284.859V284.695C762.703 284.352 762.669 284.029 762.602 283.727C762.539 283.419 762.438 283.148 762.297 282.914C762.161 282.674 761.982 282.487 761.758 282.352C761.534 282.216 761.263 282.148 760.945 282.148C760.628 282.148 760.357 282.216 760.133 282.352C759.914 282.487 759.734 282.674 759.594 282.914C759.458 283.148 759.359 283.419 759.297 283.727C759.234 284.029 759.203 284.352 759.203 284.695ZM768.547 282.352V289H766.297V280.547H768.406L768.547 282.352ZM768.219 284.477H767.609C767.609 283.852 767.69 283.289 767.852 282.789C768.013 282.284 768.24 281.854 768.531 281.5C768.823 281.141 769.169 280.867 769.57 280.68C769.977 280.487 770.43 280.391 770.93 280.391C771.326 280.391 771.688 280.448 772.016 280.562C772.344 280.677 772.625 280.859 772.859 281.109C773.099 281.359 773.281 281.69 773.406 282.102C773.536 282.513 773.602 283.016 773.602 283.609V289H771.336V283.602C771.336 283.227 771.284 282.935 771.18 282.727C771.076 282.518 770.922 282.372 770.719 282.289C770.521 282.201 770.276 282.156 769.984 282.156C769.682 282.156 769.419 282.216 769.195 282.336C768.977 282.456 768.794 282.622 768.648 282.836C768.508 283.044 768.401 283.289 768.328 283.57C768.255 283.852 768.219 284.154 768.219 284.477ZM779.75 283.234V285H775.336V283.234H779.75ZM784.133 288.047L786.375 280.547H788.789L785.391 290.273C785.318 290.487 785.219 290.716 785.094 290.961C784.974 291.206 784.81 291.438 784.602 291.656C784.398 291.88 784.141 292.062 783.828 292.203C783.521 292.344 783.143 292.414 782.695 292.414C782.482 292.414 782.307 292.401 782.172 292.375C782.036 292.349 781.875 292.312 781.688 292.266V290.617C781.745 290.617 781.805 290.617 781.867 290.617C781.93 290.622 781.99 290.625 782.047 290.625C782.344 290.625 782.586 290.591 782.773 290.523C782.961 290.456 783.112 290.352 783.227 290.211C783.341 290.076 783.432 289.898 783.5 289.68L784.133 288.047ZM783.195 280.547L785.031 286.672L785.352 289.055L783.82 289.219L780.781 280.547H783.195ZM789.203 284.859V284.695C789.203 284.076 789.292 283.505 789.469 282.984C789.646 282.458 789.904 282.003 790.242 281.617C790.581 281.232 790.997 280.932 791.492 280.719C791.987 280.5 792.555 280.391 793.195 280.391C793.836 280.391 794.406 280.5 794.906 280.719C795.406 280.932 795.826 281.232 796.164 281.617C796.508 282.003 796.768 282.458 796.945 282.984C797.122 283.505 797.211 284.076 797.211 284.695V284.859C797.211 285.474 797.122 286.044 796.945 286.57C796.768 287.091 796.508 287.547 796.164 287.938C795.826 288.323 795.409 288.622 794.914 288.836C794.419 289.049 793.852 289.156 793.211 289.156C792.57 289.156 792 289.049 791.5 288.836C791.005 288.622 790.586 288.323 790.242 287.938C789.904 287.547 789.646 287.091 789.469 286.57C789.292 286.044 789.203 285.474 789.203 284.859ZM791.453 284.695V284.859C791.453 285.214 791.484 285.544 791.547 285.852C791.609 286.159 791.708 286.43 791.844 286.664C791.984 286.893 792.167 287.073 792.391 287.203C792.615 287.333 792.888 287.398 793.211 287.398C793.523 287.398 793.792 287.333 794.016 287.203C794.24 287.073 794.419 286.893 794.555 286.664C794.69 286.43 794.789 286.159 794.852 285.852C794.919 285.544 794.953 285.214 794.953 284.859V284.695C794.953 284.352 794.919 284.029 794.852 283.727C794.789 283.419 794.688 283.148 794.547 282.914C794.411 282.674 794.232 282.487 794.008 282.352C793.784 282.216 793.513 282.148 793.195 282.148C792.878 282.148 792.607 282.216 792.383 282.352C792.164 282.487 791.984 282.674 791.844 282.914C791.708 283.148 791.609 283.419 791.547 283.727C791.484 284.029 791.453 284.352 791.453 284.695Z" fill="#8D8D99"/>
<g filter="url(#filter1_d_434_2)">
<rect y="311" width="1416" height="24" fill="#0F67B1"/>
</g>
</g>
<defs>
<filter id="filter0_ddddd_434_2" x="662" y="108" width="448" height="196" filterUnits="userSpaceOnUse" color-interpolation-filters="sRGB">
<feFlood flood-opacity="0" result="BackgroundImageFix"/>
<feColorMatrix in="SourceAlpha" type="matrix" values="0 0 0 0 0 0 0 0 0 0 0 0 0 0 0 0 0 0 127 0" result="hardAlpha"/>
<feOffset/>
<feColorMatrix type="matrix" values="0 0 0 0 0 0 0 0 0 0 0 0 0 0 0 0 0 0 0.15 0"/>
<feBlend mode="normal" in2="BackgroundImageFix" result="effect1_dropShadow_434_2"/>
<feColorMatrix in="SourceAlpha" type="matrix" values="0 0 0 0 0 0 0 0 0 0 0 0 0 0 0 0 0 0 127 0" result="hardAlpha"/>
<feOffset dy="4"/>
<feGaussianBlur stdDeviation="4"/>
<feColorMatrix type="matrix" values="0 0 0 0 0 0 0 0 0 0 0 0 0 0 0 0 0 0 0.15 0"/>
<feBlend mode="normal" in2="effect1_dropShadow_434_2" result="effect2_dropShadow_434_2"/>
<feColorMatrix in="SourceAlpha" type="matrix" values="0 0 0 0 0 0 0 0 0 0 0 0 0 0 0 0 0 0 127 0" result="hardAlpha"/>
<feOffset dy="14"/>
<feGaussianBlur stdDeviation="7"/>
<feColorMatrix type="matrix" values="0 0 0 0 0 0 0 0 0 0 0 0 0 0 0 0 0 0 0.13 0"/>
<feBlend mode="normal" in2="effect2_dropShadow_434_2" result="effect3_dropShadow_434_2"/>
<feColorMatrix in="SourceAlpha" type="matrix" values="0 0 0 0 0 0 0 0 0 0 0 0 0 0 0 0 0 0 127 0" result="hardAlpha"/>
<feOffset dy="32"/>
<feGaussianBlur stdDeviation="9.5"/>
<feColorMatrix type="matrix" values="0 0 0 0 0 0 0 0 0 0 0 0 0 0 0 0 0 0 0.08 0"/>
<feBlend mode="normal" in2="effect3_dropShadow_434_2" result="effect4_dropShadow_434_2"/>
<feColorMatrix in="SourceAlpha" type="matrix" values="0 0 0 0 0 0 0 0 0 0 0 0 0 0 0 0 0 0 127 0" result="hardAlpha"/>
<feOffset dy="57"/>
<feGaussianBlur stdDeviation="11.5"/>
<feColorMatrix type="matrix" values="0 0 0 0 0 0 0 0 0 0 0 0 0 0 0 0 0 0 0.02 0"/>
<feBlend mode="normal" in2="effect4_dropShadow_434_2" result="effect5_dropShadow_434_2"/>
<feBlend mode="normal" in="SourceGraphic" in2="effect5_dropShadow_434_2" result="shape"/>
</filter>
<filter id="filter1_d_434_2" x="-28" y="275" width="1472" height="80" filterUnits="userSpaceOnUse" color-interpolation-filters="sRGB">
<feFlood flood-opacity="0" result="BackgroundImageFix"/>
<feColorMatrix in="SourceAlpha" type="matrix" values="0 0 0 0 0 0 0 0 0 0 0 0 0 0 0 0 0 0 127 0" result="hardAlpha"/>
<feOffset dy="-8"/>
<feGaussianBlur stdDeviation="14"/>
<feComposite in2="hardAlpha" operator="out"/>
<feColorMatrix type="matrix" values="0 0 0 0 0 0 0 0 0 0 0 0 0 0 0 0 0 0 0.25 0"/>
<feBlend mode="normal" in2="BackgroundImageFix" result="effect1_dropShadow_434_2"/>
<feBlend mode="normal" in="SourceGraphic" in2="effect1_dropShadow_434_2" result="shape"/>
</filter>
<linearGradient id="paint0_linear_434_2" x1="0" y1="167.5" x2="1796.18" y2="167.5" gradientUnits="userSpaceOnUse">
<stop stop-color="#09090A"/>
<stop offset="0.375" stop-color="#181719"/>
<stop offset="1" stop-color="#363E45"/>
<stop offset="1" stop-color="#363E45"/>
</linearGradient>
<clipPath id="clip0_434_2">
<rect width="1416" height="335" fill="white"/>
</clipPath>
<clipPath id="clip1_434_2">
<rect width="315" height="72" fill="white" transform="translate(725 132)"/>
</clipPath>
</defs>
</svg>
